<svg width="18" height="14" viewBox="0 0 18 14" fill="none" xmlns="http://www.w3.org/2000/svg" xmlns:xlink="http://www.w3.org/1999/xlink">
<path d="M17.414,3.039C18.195,2.258 18.195,0.992 17.414,0.211C16.633,-0.57 15.367,-0.57 14.586,0.211L17.414,3.039ZM7.25,10.375L5.836,11.789C6.211,12.164 6.72,12.375 7.25,12.375C7.78,12.375 8.289,12.164 8.664,11.789L7.25,10.375ZM3.414,3.711C2.633,2.93 1.367,2.93 0.586,3.711C-0.195,4.492 -0.195,5.758 0.586,6.539L3.414,3.711ZM14.586,0.211L5.836,8.961L8.664,11.789L17.414,3.039L14.586,0.211ZM0.586,6.539L5.836,11.789L8.664,8.961L3.414,3.711L0.586,6.539Z" fill="#FFFFFF"/>
</svg>
