<svg width="30" height="30" viewBox="0 0 30 30" fill="none" xmlns="http://www.w3.org/2000/svg" xmlns:xlink="http://www.w3.org/1999/xlink">
<path d="M2.751,-0.077C1.97,-0.858 0.704,-0.858 -0.077,-0.077C-0.858,0.704 -0.858,1.97 -0.077,2.752L2.751,-0.077ZM25.249,28.077C26.03,28.858 27.296,28.858 28.077,28.077C28.858,27.296 28.858,26.03 28.077,25.249L25.249,28.077ZM-0.077,25.249C-0.858,26.03 -0.858,27.296 -0.077,28.077C0.704,28.858 1.97,28.858 2.751,28.077L-0.077,25.249ZM28.077,2.752C28.858,1.971 28.858,0.704 28.077,-0.077C27.296,-0.858 26.03,-0.858 25.249,-0.077L28.077,2.752ZM-0.077,2.752L25.249,28.077L28.077,25.249L2.751,-0.077L-0.077,2.752ZM2.751,28.077L28.077,2.752L25.249,-0.077L-0.077,25.249L2.751,28.077Z" fill="#191D30"/>
</svg>
